<mxfile host="app.diagrams.net" agent="Mozilla/5.0 (Macintosh; Intel Mac OS X 10_15_7) AppleWebKit/537.36 (KHTML, like Gecko) Chrome/138.0.0.0 Safari/537.36" version="28.0.6">
  <diagram name="Page-1" id="EdUZxSViM5mmAhsFV7JK">
    <mxGraphModel dx="1426" dy="769" grid="1" gridSize="10" guides="1" tooltips="1" connect="1" arrows="1" fold="1" page="1" pageScale="1" pageWidth="827" pageHeight="1169" math="0" shadow="0">
      <root>
        <mxCell id="0" />
        <mxCell id="1" parent="0" />
        <mxCell id="LlZvey0kFOv91ECXvhCl-6" value="" style="edgeStyle=orthogonalEdgeStyle;rounded=0;orthogonalLoop=1;jettySize=auto;html=1;" edge="1" parent="1" source="LlZvey0kFOv91ECXvhCl-1" target="LlZvey0kFOv91ECXvhCl-3">
          <mxGeometry relative="1" as="geometry" />
        </mxCell>
        <mxCell id="LlZvey0kFOv91ECXvhCl-1" value="&lt;i&gt;CoffeeEnable&lt;/i&gt;" style="rounded=1;whiteSpace=wrap;html=1;" vertex="1" parent="1">
          <mxGeometry x="40" y="240" width="120" height="60" as="geometry" />
        </mxCell>
        <mxCell id="LlZvey0kFOv91ECXvhCl-10" value="" style="edgeStyle=orthogonalEdgeStyle;rounded=0;orthogonalLoop=1;jettySize=auto;html=1;" edge="1" parent="1" source="LlZvey0kFOv91ECXvhCl-2" target="LlZvey0kFOv91ECXvhCl-9">
          <mxGeometry relative="1" as="geometry" />
        </mxCell>
        <mxCell id="LlZvey0kFOv91ECXvhCl-2" value="&lt;i&gt;CoffeeTimerEvent&lt;/i&gt;" style="rounded=1;whiteSpace=wrap;html=1;" vertex="1" parent="1">
          <mxGeometry x="230" y="360" width="120" height="60" as="geometry" />
        </mxCell>
        <mxCell id="LlZvey0kFOv91ECXvhCl-7" value="" style="edgeStyle=orthogonalEdgeStyle;rounded=0;orthogonalLoop=1;jettySize=auto;html=1;" edge="1" parent="1" source="LlZvey0kFOv91ECXvhCl-3" target="LlZvey0kFOv91ECXvhCl-4">
          <mxGeometry relative="1" as="geometry" />
        </mxCell>
        <mxCell id="LlZvey0kFOv91ECXvhCl-3" value="Configure &lt;i&gt;CoffeeTimer&lt;/i&gt;" style="rounded=1;whiteSpace=wrap;html=1;" vertex="1" parent="1">
          <mxGeometry x="230" y="240" width="120" height="60" as="geometry" />
        </mxCell>
        <mxCell id="LlZvey0kFOv91ECXvhCl-8" value="" style="edgeStyle=orthogonalEdgeStyle;rounded=0;orthogonalLoop=1;jettySize=auto;html=1;" edge="1" parent="1" source="LlZvey0kFOv91ECXvhCl-4" target="LlZvey0kFOv91ECXvhCl-5">
          <mxGeometry relative="1" as="geometry" />
        </mxCell>
        <mxCell id="LlZvey0kFOv91ECXvhCl-4" value="Enable &lt;i&gt;CoffeeGPIO&lt;/i&gt;" style="rounded=1;whiteSpace=wrap;html=1;" vertex="1" parent="1">
          <mxGeometry x="414" y="240" width="120" height="60" as="geometry" />
        </mxCell>
        <mxCell id="LlZvey0kFOv91ECXvhCl-5" value="Start &lt;i&gt;CoffeeTimer&lt;/i&gt;" style="rounded=1;whiteSpace=wrap;html=1;" vertex="1" parent="1">
          <mxGeometry x="620" y="240" width="120" height="60" as="geometry" />
        </mxCell>
        <mxCell id="LlZvey0kFOv91ECXvhCl-9" value="Disable &lt;i&gt;CoffeeGPIO&lt;/i&gt;" style="whiteSpace=wrap;html=1;rounded=1;" vertex="1" parent="1">
          <mxGeometry x="420" y="360" width="120" height="60" as="geometry" />
        </mxCell>
      </root>
    </mxGraphModel>
  </diagram>
</mxfile>
